<?xml version="1.0" encoding="utf-8"?>
<!-- Generator: Adobe Illustrator 24.1.3, SVG Export Plug-In . SVG Version: 6.00 Build 0)  -->
<svg version="1.1" id="Layer_1" xmlns="http://www.w3.org/2000/svg" xmlns:xlink="http://www.w3.org/1999/xlink" x="0px" y="0px"
	 viewBox="0 0 3891 7756" style="enable-background:new 0 0 3891 7756;" xml:space="preserve">
<style type="text/css">
	.st0{opacity:0.25;stroke:#000000;stroke-miterlimit:10;}
</style>
<image style="overflow:visible;" width="3891" height="7756" xlink:href="image-map.jpg" >
</image>
<path id="land1" class="st0" d="M1357.5,243.5l58,12l58,18l39,14l44,11l49-5h29l19,5l25,9h19l16-10l23-33l12-31l5-24l-5-8
	c0,0-160-53-163-53s-138-54-138-54l-23-10l-32,64l-23,48l-16,35L1357.5,243.5z"/>
<polygon id="land2" class="st0" points="1345.5,290.5 1353.5,243.5 1415.5,255.5 1473.5,273.5 1524.5,290.5 1541.5,300.5 
	1531.5,336.5 1506.5,380.5 1478.5,421.5 1457.5,477.5 1427.5,547.5 1400.5,619.5 1368.5,689.5 1335.5,760.5 1310.5,809.5 
	1210.5,759.5 1237.5,685.5 1256.5,635.5 1268.5,587.5 1279.5,534.5 1297.5,478.5 1308.5,428.5 1324.5,367.5 1335.5,323.5 "/>
<polygon id="land3" class="st0" points="1750.9,219 1741.4,248.8 1725.6,277.1 1710.5,304.5 1697.5,304.5 1718.5,325.5 
	1732.5,344.5 1750.5,360.5 1766.5,372.5 1798.5,372.5 1829.5,372.5 1855.5,377.5 1888.5,381.5 1909.5,384.5 1932.5,384.5 
	1941.5,348.5 1955.5,301.5 1970.5,252.5 1970.5,236.5 1963.5,227.5 1945.5,234.5 1927.5,237.5 1907.5,240.5 1899.5,236.5 
	1880.5,238.5 1857.5,236.5 1824.5,236.5 1799.5,236.5 1778.5,229.5 1757.5,218.5 "/>
<polygon id="land4" class="st0" points="1541.5,301.5 1565.1,297.6 1607.5,297.5 1634.5,293.5 1658.7,301.5 1678.5,307.5 
	1697.5,311.5 1718.5,325.5 1740.3,351.4 1766.5,372.5 1756.5,401.5 1726.5,449.5 1682.5,510.5 1666.5,543.5 1622.5,524.5 
	1579.5,506.5 1493.5,473.5 1465.5,458.5 1483.5,414.1 1521.6,353.2 1538.5,321.5 "/>
<polygon id="land5" class="st0" points="1310.5,809.5 1330.5,820.5 1355.5,827.5 1384.5,834.5 1415.5,851.5 1441.5,866.5 
	1452.5,872.5 1464.5,836.5 1480.5,802.5 1510.5,762.5 1533.5,733.5 1563.5,700.5 1577.5,668.5 1666.5,543.5 1465.5,458.5 "/>
<polygon id="land6" class="st0" points="2386.5,1331.5 2459.5,1316.5 2532.5,1312.5 2532.5,1271.5 2532.6,1241.8 2531.5,1204.5 
	2334.5,1213.5 2333.8,1286.2 "/>
<path id="land7" class="st0" d="M1615.5,886.5l16,5v21l4,8l8,6l8-4l34,17l86,39l6-29c0,0,9-42,9-49s5-45,5-45l12-46c0,0,16-50,16-53
	s10-45,10-45s19-36,19-40s17-56,17-56l26-55l12-28l10-22v-20l7-39l10-35l8-23l-6-9l-59.2-4.8l-32.8-0.2l-17.1-7H1785h-18.5
	l-15.4,37.7l-22.1,35.3l-19.4,27.5l-27,37.5l-25,51l-35.8,47.4l-24.3,36l-23,30.7l-10.9,25l-22,26l-8,7l-53,69l-28,70l70,15v-20
	l66,13L1615.5,886.5z"/>
<polygon id="land8" class="st0" points="1938.5,397.6 2011.5,403.5 2103.5,412.5 2185.5,412.5 2243.5,420.5 2341.5,432.5 
	2395.5,435.5 2406.5,401.5 2419.5,349.5 2419.5,329.5 2377.5,315.5 2318.5,307.5 2256.5,301.5 2200.5,286.5 2138.5,266.5 
	2081.5,251.5 2031.5,243.5 1988.5,243.5 1970.5,243.5 1945.5,339.5 1932.5,384.5 "/>
<path id="land9" class="st0" d="M1938.5,397.5l-15.9,46.6l-9.1,46.4l12,17l45,7l73,12h25l16-6c0,0,4-22,4-25s6-30,6-30l5-22l5-18
	v-13l-75.1-7.2l-62-3.1L1938.5,397.5z"/>
<polygon id="land10" class="st0" points="2372.5,565.5 2330.5,569.5 2267.5,565.5 2217.5,560.5 2163.5,547.5 2121.5,540.5 
	2089.5,526.5 2084.5,520.5 2092.9,473 2099.5,443.5 2104.5,412.5 2159.6,412.5 2228.5,418.4 2287.7,425.9 2332,431.3 2372.5,435.5 
	2395.5,435.5 2395.5,490.5 2389.5,544.5 "/>
<path id="land11" class="st0" d="M1802.5,978.5c0,0-23-8-29-6s15-90,15-90l18-83l19-50l8.5-46.7l14.5-31.3l11-37.4l11.7-30.6
	l13.2-27.9l12.5-27.5l16.7-32.5l3-9.1l29,4.1l45.2,7.2l56.8,5.7l9,10c0,0-2,15.8-4.2,31.2c-1.9,13.1-3.8,26-4.8,28.8
	c-0.6,1.7-2.8,8.7-5.8,18.1c-4.2,13.1-9.7,30.7-14,44.1c-3.6,11.4-6.2,19.8-6.2,19.8l-12,50l-20,84l-5,79l-24,69l-15,75l-77-31
	L1802.5,978.5z"/>
<path id="land12" class="st0" d="M2064.5,536.5"/>
<polygon id="land13" class="st0" points="2076.5,533.5 2089.5,533.5 2115.9,538 2173.3,549.9 2222,560.9 2229.5,569.5 2219.5,625.5 
	2212.5,661.5 2204.5,705.5 2197.5,736.5 2152.5,741.5 2092.5,733.5 2040.5,733.5 2009,718.6 2021.5,675.5 2039.6,618.3 
	2049.9,580.5 2056.5,533.5 "/>
<path id="land14" class="st0" d="M2430.5,335.5l57-5l29,2l38,14l38,26l28,4l48,17l41,4h59l38,5l9,10c0,0-6,34-6,36s-23,46-23,46
	s-15,23-20,28s-32,25-32,25l-43,26l-36,11c0,0-58-9-68-15s-44-8-44-8s-66-26-71-25s-50-8-53-10s-24-13.2-24-13.2v-42.1v-35.7l8-26
	l11.5-41.9l4.5-22.1L2430.5,335.5z"/>
<polygon id="land15" class="st0" points="2668.5,589.5 2673.5,620.5 2660.5,652.5 2629.5,664.5 2592.5,688.5 2548.5,701.5 
	2493.5,709.5 2452.5,717.5 2419.5,721.5 2395.5,725.5 2395.5,704.5 2395.5,665.5 2395.5,632.5 2391.5,596.5 2391.5,576.5 
	2391.5,556.5 2395.5,543.5 2400.5,533.5 2413.5,526.5 2449.9,533.5 2498.5,547.5 2525.7,553.9 2554.5,564.5 2575.5,569.5 
	2599.3,576.1 2620.9,578.4 2655.5,584.5 "/>
<path id="land16" class="st0" d="M2391.5,730.5c-6,0-35,0-35,0l-39,4h-33h-28l-27-2h-12h-16v-13.7l6.9-34.9l4.1-22.4l6.2-31.9
	l3.7-20.5l3.5-19.4l3.6-20.2h11l14.3-5.3l30.7,5.3h35c0,0,21.5,2,23.7,0c2.3-2,20.3,0,20.3,0s8,1,10,0s10,0,10,0l7,7
	c0,0,6,28.6,4,33.3s-0.7,46.7-0.7,46.7l0.7,39.1v29.9L2391.5,730.5z"/>
<path id="land17" class="st0" d="M1192.5,773.5l-13,61l-19,38l-13,44l-21,40l-18,48l-17,42l-23,41l-16,34l12,27l22,22l-2,24l-5,32
	l-15,43l-3,29l5,22l13,10l33,9h20l29,13l55-86l14-20l21-39l9-22l-3.5-12.8l-25.5-7.2l-38,1l-20-4l8-39l11-53l10-28l8-7l13-23l13-14
	l9-26l10-21c0,0,8-26,9-29s14-31,14-31l10-24l5-26v-11l-9-9l-27-12l-27-18l-24-14L1192.5,773.5z"/>
<path id="land18" class="st0" d="M1390.5,1005.5c0,0,16-34,16-38s9-32,9-32l7-27l3-21l-10-15c0,0-15-5-19-7s-32-11-32-11l-31-6
	l-23-6h-17l-15,49l-16.8,40l-4.2,26l-6,15l69,15l41,11L1390.5,1005.5z"/>
<path id="land19" class="st0" d="M1410.5,1018.5l-14-13l-35-7l-41-11l-27-5.9l-33.5-7.3l-14.5-1.8l-9,23l-11,23l-15,23l-12.2,12.6
	c0,0,27.2,12.4,31.2,12.4s58,7,58,7l30,7l30,10l22,6l19,5l17,8l10-8l10-24l-10-7l-11-5l1-18l10-29H1410.5z"/>
<path id="land20" class="st0" d="M1375.5,1201.5l11-34c0,0,7-23,10-28s9-30,9-30l-22.6-9.5l-35.4-9.5l-37-11.6l-38.3-7.3l-37.1-4.5
	l-24.6-7.5l-12-5l-7.7,24.4l-3.9,30.6l-7.7,25.3l-6.7,27.7l59,3c0,0,25,6,29,5s21,4,24,5s27,10,27,10l27,8l20,8L1375.5,1201.5
	L1375.5,1201.5z"/>
<path id="land21" class="st0" d="M1264.5,1176.5l-8,21c0,0-10,8-11,10s-15,39-15,39l-28,40l-24,35l-12,26l-5,10l23,19l34,15l33,22
	l20,7h17l16-22l7-32l13-41l19-39l11-25l9-27l8-23l6-7l-44-9l-40-16.7L1264.5,1176.5z"/>
<path id="land22" class="st0" d="M1047.5,1128.5l11.6,7.8l15.9,22.7l9.5,35.5l-7.3,38.5c0,0-13.5,37.5-13.1,40s-0.7,33.8-0.7,33.8
	l-10.9,26.6c0,0-24,14-27,14s-33,15-35,18s-27,17-27,17l-9-53v-38l6-36l25-38l34-47L1047.5,1128.5z"/>
<path id="land23" class="st0" d="M966.5,1397.5v-15L986,1369l25.7-15.7l28.8-7.8l25-13h14l20.7,3.7l11.3,6.3h6l-6,28l-4,31l-2,36
	c0,0-2,16-7,20s-22,32-22,32l-7,20l-7,20l-15,19h-23l-31,16h-14h-18v-45l4-43l1-39V1397.5z"/>
<polygon id="land24" class="st0" points="1284.5,1427.5 1274.5,1453.5 1255.5,1485.5 1242.5,1498.5 1216.5,1486.5 1184.5,1479.5 
	1164.5,1463.5 1133.5,1458.5 1106.5,1455.5 1106.5,1437.5 1106.5,1407.9 1110.4,1379 1114.6,1355.8 1121,1339.5 1146.1,1345.6 
	1175.4,1370.4 1198.1,1382.5 1228.2,1398.7 1257.5,1414.5 1278,1420.5 "/>
<path id="land25" class="st0" d="M1349.5,1806.5l11-39c0,0,10-51,11-53s14-51,14-51l13-38v-30l-13-27l-32-20l-38-24l-37-21l-30-5
	l-32-12l-44-13l-19.4-11.8h-3.8l-15.8-3.2l-31.7-6l-17.3,28.2l-17.2,35l-13.8,25.1l-6.1,7.7l-28,2.6l-21.3,11l-18.7,2.4h-14.8
	l-0.2,42l-10,36l65,26l46,23l19,17c0,0,36,17,40,17s48,24,48,24l45,15l52,20l48,11l36,11L1349.5,1806.5L1349.5,1806.5z"/>
<path id="land26" class="st0" d="M1671.5,1186.5v54l-20,66l-20,46l-35,54l-26,34l-18,49l-13,61l-17,54c0,0-7,41-12,39s-71-36-71-36
	l-62-43l-66-40l-42-22.5l-21-3.5l33.7-65l29.3-47l13-61l23.2-48.5l19-51.5l13.7-38.9l45.1,10l29,12l30,10l7-13l9-29l11-39l3-14
	l67,20l42,20L1671.5,1186.5z"/>
<polygon id="land27" class="st0" points="1522.5,887.5 1509.5,941.5 1450.5,924.5 1444.5,902.5 1450.5,882.5 1468.3,874.4 "/>
<polygon id="land28" class="st0" points="1533.5,948.5 1546.5,872.5 1522.5,867.5 1509.5,941.5 "/>
<polygon id="land29" class="st0" points="1583.5,959.5 1533.5,948.5 1546.5,872.5 1624,887.5 1631.5,887.5 1631.5,916.5 
	1643.5,924.5 1643.5,941.5 1631.5,959.5 1624.5,972.5 "/>
<path id="land30" class="st0" d="M1771.5,978.5c0,0-114.1-61.1-116.1-54s-17.9,38-17.9,38l82,30l40,20L1771.5,978.5z"/>
<polygon id="land31" class="st0" points="1749.5,1041.5 1759.5,1012.5 1704.5,991.5 1671.5,978.5 1643.5,972.5 1622.5,1021.5 
	1643.5,1035.5 1637.5,1048.5 1652.5,1063.5 1676.5,1068.5 1691.5,1078.5 1704.5,1078.5 1699.5,1095.5 1704.5,1103.5 1723.5,1103.5 
	"/>
<path id="land32" class="st0" d="M1561.5,1020.5c3,0,42,17,42,17l34,17l44.5,17.7l9.5,11.3v12l-1,28l-9,27l-5,26l-5,10l-90-43
	l-35-15l-32-5l8-20l11-20l13-29L1561.5,1020.5z"/>
<polygon id="land33" class="st0" points="1500.5,1080.5 1528.5,1086.5 1561.5,1020.5 1568.5,972.5 1522.5,960.5 "/>
<polygon id="land34" class="st0" points="1597.5,972.5 1569.5,968.5 1561.5,1020.5 1590.5,1031.9 1622.5,1047 1637.5,1047.5 
	1641,1041 1622.5,1020.5 1616.5,1012.5 1622.5,999.5 1622.5,984.5 "/>
<polygon id="land35" class="st0" points="1437.5,941.5 1522.5,960.5 1500.5,1080.5 1425.5,1067.5 1425.5,1063.5 1412.5,1063.5 
	1425.5,1005.5 1437.5,937.5 "/>
<polygon id="land36" class="st0" points="1430.5,1080.5 1514.5,1098.5 1483.5,1218.5 1425.5,1196.5 1386.5,1186.5 1398.5,1134.7 
	1412.5,1109.5 "/>
<polygon id="land37" class="st0" points="1683.5,1163.5 1771.5,1176.5 1771.5,1119.5 1691.5,1109.5 1684,1143 1683.5,1149.5 "/>
<polygon id="land38" class="st0" points="2049.5,1054.5 2229.5,1037.5 2328.5,1020.5 2333.8,1123.5 2128.5,1154.5 2092.5,1115.5 
	2049.5,1058.5 "/>
<path id="land39" class="st0" d="M1751.3,1348.4l-25.3,54.7l-21.5,99.9l51.5,54.8c0,0,39.5,14.7,39.5,6.7s48.5-166.8,48.5-170.8
	s23.8-62.2,23.8-62.2l24.7-86.2l22-52.3l-43-25l-29.5-19.2l-17.5,35l-19.5,46.5L1751.3,1348.4z"/>
<path id="land40_3_" class="st0" d="M1727.5,1531.5"/>
<path id="land40_2_" class="st0" d="M1735.5,1382.5l70.2-151.7l22.2-49c0,0,20.8-36.7,11.4-38.7c-7.3-1.6-24.2-12.5-28.8-12.5
	c-8.7,0.1-23.7-8.8-33.1-9c-7.4-0.1-5.9,47.9-5.9,47.9v7.1h-26l-62-7l-6,32v45l-20.8,42.9l-11.5,31.6c0,0,13.3,26.5,19.3,26.5
	s47,16,47,16L1735.5,1382.5"/>
<polygon id="land41" class="st0" points="1795.5,1554.5 1834.5,1591.5 1871.5,1591.5 1902.5,1554.5 1922.5,1469.5 1945.5,1383.5 
	1971.5,1286.5 1989.5,1208.5 1945.5,1201.5 1902.5,1201.5 1880.5,1260.5 1853.2,1364.3 1825.5,1452.5 1802.5,1510.5 "/>
<path id="land42" class="st0" d="M1909.5,1047.5l36,16l63,10l15,7l-15,63l-8,43l-11,15l-58.1-15l-38.9-15.5l-46.3-19.5l-74.7-32
	l-48.5-10c0.4-0.2,10.1-23.1,10.5-23.3c0.5-0.2,24.8-75.3,26-75.7c12.6-4.8,23.4,9.8,36,5c11.2-4.2,35.1,9.2,46.3,5
	c13.5-5.1,47.2,26.1,60.7,21C1904.8,1043.5,1907.2,1045.5,1909.5,1047.5z"/>
<polygon id="land43" class="st0" points="2197.5,734.5 2239.5,734.5 2307.5,734.5 2402.5,725.5 2480.5,712.5 2548.5,701.5 
	2548.5,730.5 2542.5,754.5 2532.5,779.5 2518.5,796.5 2486.5,825.5 2462.5,825.5 2436.5,842.5 2428.5,874.5 2405.5,939.5 
	2402.5,984.5 2395.5,1000.5 2356.5,1012.5 2298.5,1032.5 2222.5,1041.5 2214.5,1032.5 2223.5,984.5 2222.5,943.5 2229.5,898.5 
	2229.5,874.5 2190.5,874.5 2190.5,741.5 "/>
<polygon id="land44" class="st0" points="2781.5,584.5 2764.5,656.5 2755.5,684.5 2724.6,693.6 2719.5,725.5 2705.5,741.5 
	2678.5,755.5 2665.8,788.9 2655.5,828.5 2647.5,899.5 2627.5,940.5 2627.5,975.5 2619.5,1020.5 2619.5,1054.5 2619.5,1061.5 
	2678.5,1075.5 2695.5,924.5 2732.7,891.9 2764.5,839.5 2801.8,784.5 2823.5,701.5 2844.5,633.5 2868.5,604.5 "/>
<polygon id="land45" class="st0" points="2084.5,1041.5 2135.5,1041.5 2174.5,1041.5 2214.5,1032.5 2229.5,874.5 2112.5,874.5 
	2084.5,874.5 "/>
<polygon id="land46" class="st0" points="1945.5,1032.5 1981.5,1047.5 2008.5,1047.5 2049.5,1054.5 2084.5,1041.5 2084.5,874.5 
	2034.5,874.5 1989.5,867.5 1973.2,931.5 1950.7,978.5 "/>
<polygon id="land47" class="st0" points="2008.5,733.5 1989.5,784.5 1989.5,867.5 2084.5,874.5 2167.5,867.5 2190.8,872.5 
	2190.8,741.5 2008.5,718.5 "/>
<polygon id="land48" class="st0" points="2333.5,1286.5 2156.5,1151.5 2333.5,1130.5 "/>
<polygon id="land49" class="st0" points="2557.3,950.5 2576.3,930.5 2598.3,926.5 2632.3,926.5 2622.5,924.2 2615.5,1018.2 
	2608.5,1110.5 2593.5,1179.5 2594.5,1223.5 2541.3,1226.5 2546.3,1161.5 2550.3,1075.2 2554.9,1005.5 "/>
<polygon id="land50" class="st0" points="3021.5,701.5 2983.5,899.5 2926.5,883.5 2972.5,675.5 3036.5,692.5 "/>
<polygon id="land51" class="st0" points="2861.5,637.5 2781.5,834.5 2916.5,874.5 2967.5,675.5 "/>
<polygon id="land52" class="st0" points="2948.5,915.5 2916.5,1121.5 2788.5,1095.5 2835.5,874.5 2948.5,905.5 "/>
<path id="land53" class="st0" d="M2770.5,855.5c0,0-29,26-33,31s-44,47-44,47l-5,53l-10,82l110,27l43-221L2770.5,855.5z"/>
<path id="land54" class="st0" d="M2229.5,1390.5h53l38,6h36v-32v-12l-25-13l-21-23l-12-22l-62-61l-24.1-25.6l-27.9-16.4l-58-24
	l-26-16l-16,50v71v67l-10,57l-25,81l-10,77l-16,56l-15,40l-13,47l-8,51l-19,49l-26,57l161,82c0,0,68-202,67-212s5-81,5-81l7-52v-37
	l8-33l5-33l8-49l3-28l8-21H2229.5z"/>
<polygon id="land55" class="st0" points="1971.5,1316.5 1989.5,1316.5 2008.5,1316.5 2039.5,1331.5 2069.5,1331.5 2077.5,1323.5 
	2084.5,1282.8 2084.5,1236.9 2084.5,1201.5 2092.5,1176.5 2092.5,1143 2079.2,1121.5 2069.5,1097.5 2056.5,1062.5 2032,1054.5 
	2023.5,1080.5 2008.5,1142.5 2000.5,1186.5 1983.9,1232.9 1981,1266 1968.3,1298.5 1968.5,1322.5 "/>
<path id="land56" class="st0" d="M1938.5,1825.5l30-39l12-50l9-40l19-53v-39l15-50l7-23v-42v-8h-22l-24-7h-25h-21h-16l-9.9,37.2
	l-20.1,71.8l-12,46l-20,70v54l-20,39l32,22c0,0,34,13,40,11S1938.5,1825.5,1938.5,1825.5z"/>
<path id="land57" class="st0" d="M1968.5,1316.5h21l34,7.3l26,15.7l20-8v52l-13,56l-16,35c0,0-18,7-21.5,7s-41.5-16-41.5-16l-39,9
	h-16l16-64.8l12.1-45.2L1968.5,1316.5z"/>
<polygon id="land58" class="st0" points="2611.8,1067 2604.2,1130.5 2598.5,1191.5 2594.5,1226.5 2594.5,1257.5 2643.5,1262.5 
	2643.5,1164.5 2664.5,1102.5 2673.5,1075.4 "/>
<polygon id="land59" class="st0" points="2156.5,1953.5 2156.5,1918.5 2147.5,1891.5 2124.1,1891.5 2110.8,1916.1 2103.5,1929.5 
	2121.5,1946.5 2146.5,1953.5 "/>
<polygon id="land60" class="st0" points="2333.5,1591.5 2356.5,1535.5 2356.5,1481.5 2356.5,1419.5 2356.5,1396.5 2282.5,1396.5 
	2214.5,1396.5 2203.5,1439.5 2184.2,1547.4 2184.2,1598.4 2224.5,1609.5 2307.5,1603.5 "/>
<polygon id="land61" class="st0" points="2290.5,1813.5 2316.5,1771.5 2336.5,1731.5 2356.5,1690.5 2356.5,1659.5 2340.5,1629.5 
	2323.5,1609.5 2281.5,1609.5 2224.5,1609.5 2184.5,1598.5 2175,1650.1 2171.4,1697.5 2162,1745.7 2155,1761.5 2195.5,1779.5 
	2255.5,1806.5 "/>
<path id="land62" class="st0" d="M2203.5,1978.5c0-8,30-56,30-56l37-74v-23l-33.5-27.3l-60-26.9l-22.5-9.8l-13.8,70.7l-11.2,59.3h18
	l9,31l8,14l-1,25L2203.5,1978.5z"/>
<path id="land63" class="st0" d="M3027.5,706.5l26-69c0,0,22-100,23-101s0-63,0-63l-98-38l-95-23l-57-15l-23.3,64.5l-22.7,57.5
	l-25,33l29.7,28l66.3,4l38,24l-2,18c0,0,38,24,43,23s49,39,49,39L3027.5,706.5z"/>
<polygon id="land64" class="st0" points="2883.5,1130.5 2863.5,1238.5 2643.5,1170.2 2678.5,1080.5 "/>
<polygon id="land65" class="st0" points="2860.5,1243.5 2860.5,1301.5 2860.5,1323.5 2781.5,1316.5 2623.5,1291.5 2619.5,1272.5 
	2643.5,1178.4 "/>
<path id="land68" class="st0" d="M1610.5,1922.5l61,7l30-12l21-73c0,0,6-30-5-31s-67-16-67-16l-40,38V1922.5z"/>
<path id="land67" class="st0" d="M1224.5,3397.5c-4,15-28,77-28,77s170.5,54.5,170.8,48.8s0.2-33.8,0.2-33.8l19-45L1224.5,3397.5z"
	/>
<path id="land66" class="st0" d="M1162.5,3566.5c0.2,0.4,1.9,1.3,4.7,2.5c19.5,8.9,92.3,36.5,92.3,36.5l103,43
	c0,0,4.6-31.8,4.3-35.9c-0.3-4.1-0.3-84.1-0.3-84.1l-82.2-26.7c0,0-82.8-25.3-87.8-24.3s-27,28-27,28l-7,63V3566.5z"/>
<polygon id="land69" class="st0" points="1727.5,1697.5 1747.6,1543.7 1704.5,1498.5 1717.6,1458.1 1726,1403.1 1727.5,1383.5 
	1671.5,1349.1 1645.2,1331.5 1601.5,1406.5 1561.5,1465 1539.5,1554.5 1522.5,1618.3 1522.5,1643.5 1602.5,1659.5 1671.5,1675.5 "/>
<path id="land70" class="st0" d="M2321.5,1906.5v-23l-15-23l-36-24.6l-141,269.6l14,14l39,17l28,18c0,0,33-61,34-69s41-107,41-107
	l21-49L2321.5,1906.5z"/>
<path id="land71" class="st0" d="M2299.5,2183.5c14-9,22-57,22-57l24-49l11-42l12-40v-29l-20-37l-15-20h-12l-31,57.3l-28.9,71.8
	l-33.5,82.5l-17.6,33.5c0,0,44,21,45,21S2299.5,2183.5,2299.5,2183.5z"/>
<path id="land72" class="st0" d="M1460.5,1851.5l23-38l18-52l13-55v-56l-18.3-14l-56.7-27h-31l-22,54l-9,51c0,0-21.4,70.5-23.7,76.8
	c-2.3,6.2-1.3,16.2-0.3,22.2s24,22,24,22L1460.5,1851.5z"/>
<path id="land73" class="st0" d="M1418.5,1987.5l15-65v-71l-47-16l-34-22l-27,47l-22,49l-19,44c0,0,28,14,39,14s63,11,63,11
	L1418.5,1987.5z"/>
<path id="land74" class="st0" d="M1377.5,2090.5l21-52l9.9-53.8l-21.9-6.2l-63-11l-46-14l-20,54l-24,55l44,8c0,0,61,10,65,12
	S1377.5,2090.5,1377.5,2090.5z"/>
<path id="land75" class="st0" d="M1420.6,1978.5l46.9,9l63,8h41v51c0,0-8,53-9,59s-21,49-21,49l-27,44c0,0-23,37-18,43s-13,42-13,42
	s-8,8-24,10s-46-14-51-16s-49-14-49-14l-23-16l16-56l25-55l-6-34l27-64L1420.6,1978.5z"/>
<path id="land76" class="st0" d="M1490.5,1813.5h17l48,22h41l20,8c0,0-9,45-9,57s-2,52-5,59s-20,36-20,36s-30.3-0.6-38.1-0.3
	s-39.9-2.8-53.9-4.8s-25-14.9-40-11.9s-24.2-25-24.2-25l0.2-44l7-39.5l20-28.5l30-28L1490.5,1813.5L1490.5,1813.5z"/>
<path id="land77" class="st0" d="M1738.5,1813.5v-45v-38l-11-33c0,0-57-12-71-15s-110.6-32.4-110.6-32.4l-24.4,0.4l-12.7,80
	l-20.7,69.7c0,0-10.4-0.7,0,6.3s46,19.2,46,19.2l62.4,9.8l29-22l20-24l26-4l23,12l37,9L1738.5,1813.5z"/>
<path id="land78" class="st0" d="M1155.5,1753.5l93,33c0,0,69,7,72,9s27.8,25.3,27.8,25.3s-50.8,70.7-47.8,79.7s-23,53-23,53
	s-20.9,56.1-32.5,82.6c-11.5,26.4-11.5,44.4-11.5,44.4l-38-24l-51-10l-38-24l-34-14l-33-13l-20-8l47-65l32-52l26-35l15-53
	L1155.5,1753.5z"/>
<path id="land79" class="st0" d="M2162.5,1972.5l-46,144l-76-17l-118-64l-61-40l-49-73l36-97l24-12l50,38c0,0,60,49,65,49
	s49,13,53,16s63,29,63,29L2162.5,1972.5z"/>
<path id="land80" class="st0" d="M1758.5,1564.5c0,0,47.5,0.2,49.8,2.1c2.2,1.9,63.2,24.9,63.2,24.9l-3.2,80.7l-20.8,134.3l-32,85
	c0,0,1,21-3,13s-29-68-33-69s-32-50-32-50l-17.2-79.5l0.2-84.5l17-57H1758.5z"/>
<path id="land81" class="st0" d="M1922.5,2183.5l13-74l10-55c0,0,73.8,33,78.4,36s83.6,19,92.6,26s59.1,19.6,59.1,19.6l49.9,25.5
	l-15,57.9l-10,58c0,0-46-14-52-17s-97-30-97-30l-55-22L1922.5,2183.5z"/>
<path id="land82" class="st0" d="M2225.5,2402.5c6-3,36-64,36-64l21-68l23-49l-9-32l-56-6l-18.8-7.1l-21.2,81.1l-18,65l-20,40l20,23
	L2225.5,2402.5z"/>
<path id="land83" class="st0" d="M2321.5,2451.5c0,0,24-70,27-79s27-79,27-79l16-43l-35-33l-41-16l-28.7,59.8l-31.1,88.8l-21.7,40.6
	c0,0-8.5,25.8-8.5,18.8s45,19,45,19L2321.5,2451.5z"/>
<path id="land84" class="st0" d="M1922.5,2192.5c0,0-24,78-20,85s0,62,0,62l73,23c0,0,77,17,83,17s65,13,65,13s31-6,33-13
	s36-44,26-53s0-49,0-49l-90.9-35l-74.4-25.4L1922.5,2192.5z"/>
<polygon id="land85" class="st0" points="1800.5,2116.5 1840.5,2028.5 1861.5,1995.5 1942.8,2046.5 1922.5,2154.5 1910.3,2235 
	1902.5,2277.5 1840.5,2266.5 1795.5,2254.5 1781.5,2183.5 "/>
<path id="land86" class="st0" d="M1971.5,2602.5l-69-8l-62-25l-15-10l29-67l17-74l13-66l24.9-10.8l62.1,20.8l50.4,10
	c0,0,11.6,17,8.6,20s-29,96-31,100S1971.5,2602.5,1971.5,2602.5z"/>
<path id="land87" class="st0" d="M1775.5,2251.5l-37,99l-18,75l-10,67c0,0-31,20-16,20s54,13,59,13s47,20,47,20h25l29-53l17-74
	c0,0,8-78,12-77s10-48,10-48l-31.4-23.2L1775.5,2251.5z"/>
<path id="land88" class="st0" d="M2381.5,2228.5c0-9,2-47,0-52s3-48,10-60s29-62,29-62l26-43c0,0,18-20,24-24s61,24,61,24l46,60
	l33,56l28,65l22,36l12,75l20,78c0,0-12,73-7,70s-20,7-28,0s-103-69-103-69l-75-56L2381.5,2228.5z"/>
<path id="land89" class="st0" d="M2438.5,2532.5c6,0,52,38,58,40s58,36,58,36l30,26l19,20l33-20l17-41c0,0,3-68,7-68s12-53,12-53
	s-23.3-37.6-31.7-32.8c-8.3,4.8-76.3-37.2-76.3-37.2l-51-34l-54-42l-28-34l-33-26l-30,40l-16.4,55.3l-18.2,53.4l-5.4,39.3l-7,18
	l35,32L2438.5,2532.5z"/>
<path id="land90" class="st0" d="M2259.5,2602.5c2-11,30-75,30-75l16-55l51,32l91.3,33l65.7,44.8l71,52.2c0,0,0,11,0,20
	s-32,55-32,55l-26,29l-88-29l-86-55l-101-49L2259.5,2602.5z"/>
<path id="land91" class="st0" d="M2136.5,2640.5l20-75l85,27l82.1,48l94.4,55.9l47.2,21.9l61.3,20.2l10,27l-11,32c0,0-51-15-61-15
	s-96-36-96-36l-60-39l-74-26l-50-27L2136.5,2640.5z"/>
<path id="land92" class="st0" d="M2287.5,2883.5l21-60l13-54l21-31l-91-51l-97.5-41.9l-75.5-21.1l-89-8l-19-4l-4,49l-21,68l-9,49v28
	c0,0,63,22,69,22s93,20,115,25s94,11,94,11L2287.5,2883.5z"/>
<path id="land93" class="st0" d="M2308.5,3051.5c20,2,73,9,73,9l36,8l22-17l14-55l5-46c0,0,2-28-4-29s-78-15-78-15l-72-23l-45.6-7.4
	l-100.4-11.6l-58.2-15.6l-23.8-5.4l-17,62l-20,44c0,0-1,17,0,17s94,33,100,33s86,22,86,22l58,21l21,10L2308.5,3051.5z"/>
<path id="land94" class="st0" d="M2205.5,3230.5l59-70c0,0,17-60,23-69s21-39,21-39l-127-42.8l-96.1-27.4l-66-25.8l-46-16l-37,64
	l-30,56l-22,45c0,0,91,38,96,38s121,39,121,39s59,21,62,21S2205.5,3230.5,2205.5,3230.5z"/>
<path id="land95" class="st0" d="M2005.5,2494.5c0,0,73,18,76,18s77,12,77,12v29l-14.5,59l-7.5,23l-55-6l-50.5-9.3l-41.5-7.7l-18-10
	l11-44.6L2005.5,2494.5z"/>
<path id="land96" class="st0" d="M2162.5,2564.5l22,1c0,0,19.5,14.1,27.3,17.6c7.7,3.4,29.7,9.4,29.7,9.4h10l18-28l14-38l15.6-32
	l6.4-34l-8.5-20.1l-45.5-22.3l-30-8.7l-37-17l-32.6-8.7l-0.4,18.7v70l7,37l-2,56L2162.5,2564.5z"/>
<path id="land97" class="st0" d="M2030.5,2378.5h39c0,0,34.3,10.4,41.2,11.2c6.8,0.8,32.8,2.8,32.8,2.8l8,45.1v56.9v23
	c0,0-22.3,0-29.2,0c-6.8,0-56.8-13-56.8-13l-26.4-1.8l-24.6-14.2c0,0-6,6-9,0s7.4-40.5,7.4-40.5l5.6-34.5L2030.5,2378.5z"/>
<path id="land98" class="st0" d="M1241.5,2064l47.6,8.5l59.4,18.1c0,0,33-6,29,0s-7,46-7,46l-18,56l-10.6,36.2l-11.4,22.8
	c0,0-27-15-30-15s-50-7-50-7s-28-20-33-21s-41-16-41-16l14-31c0,0,26-45,31-51S1241.5,2064,1241.5,2064z"/>
<path id="land99" class="st0" d="M1718.5,2758.5h13v-30l8-43l27-46l30-47l16-38l-47-24.8l-38.7-10.9l-36.4-5.5l-11.9,23.3l-33,69
	l-15,55l-9,26c0,0,60,49,65,52S1718.5,2758.5,1718.5,2758.5z"/>
<path id="land100" class="st0" d="M1590.5,2326.5h40c0,0,34,21,38,21s39,18,39,18l19,13l-9.5,77.5l-17.5,38.5l-16,32.2l-52-20.2
	l-60-18l-40-16l15-70l18-40L1590.5,2326.5z"/>
<path id="land101" class="st0" d="M1726.5,2758.5l9.7-55.2l16.3-48.8l23-42l25.4-30.5l11.6-32.5l45,16c0,0,16,16.5,27,21.7
	s45,10.1,52,11.2c7,1.1,40.4,7.1,40.4,7.1s-7.4,46-10.4,56s-15,77-15,77l-15,40c0,0,4,25,0,28s-27-9-43-9s-89-14-89-14s-21-11-30-11
	S1726.5,2758.5,1726.5,2758.5z"/>
<path id="land102" class="st0" d="M1637.5,2817.5l28-43l25-27l41,11l43,14l68.9,18.1l63.1,15.9l70.4,13.7l42.6,15.3l40.8,4.4
	l18.2,3.6l-39,106v17c0,0-65-23-68-26s-87-34-87-34s-72-27-72-31s-64-19-64-19l-62-25L1637.5,2817.5z"/>
<path id="land103" class="st0" d="M1465.5,2727.5c0,0-0.9,2.4-2.3,6.3c-5.7,15.8-19.9,55.7-16.7,55.7c4,0,10,13,9,22s0,65,0,65
	l-15,32v17c0,0,57,29,62,31s67,23,72,25s77,24,77,24s51,15,54,19s49,12,55,18s31,14,41,19s37,24,37,24l37,11l9,9l15-30.7l18.4-35.6
	l18.6-34.7l19.5-33.7c0,0,16.3-30.5,11.4-32.4s-49.9-30.9-57.9-31.9s-82.5-23-82.5-23l-72.3-26.5c0,0-44.3-15.1-50.3-18.3
	c-5.9-3.2-66.9-15.2-66.9-15.2v-6c0,0-47-28-50-28s-51-18-51-18l-31-13l-38-20l-10-11h7L1465.5,2727.5L1465.5,2727.5z"/>
<path id="land104" class="st0" d="M1524.5,2617.5l-26,37l-22,32l-19,41l42,31l70.1,25.1l59.4,28.8l21.5-15l29.8-39l10.2-20
	l-46.1-32.3l-40.9-33.7l-40-32L1524.5,2617.5z"/>
<path id="land105" class="st0" d="M1207.5,2665.5l25-40l17-55c0,0,7-23,11-25s71,29,71,29l60,31l58,35l34,25l-15.1,38.4l-14.9,28.6
	c0,0-41-10-61-13s-90-16-90-16l-66-22L1207.5,2665.5z"/>
<path id="land106" class="st0" d="M1798.5,3270.5l32-50l27-50l27-65l-71.2-37l-86.8-37.1l-81-20.9c0,0-74-30.8-80.5-32.4
	c-6.5-1.6-72.9-26.6-72.9-26.6l-51.6-26l-31,46l-4,66c0,0,0,49,0,60s-4,47,0,46s42,8,52,14s128,39,128,39s54,20,59,22s65,18,65,18
	s46,19,48,22S1798.5,3270.5,1798.5,3270.5z"/>
<path id="land107" class="st0" d="M1954.5,3502.5c4-4,39-50,39-50l46-64l-65-33l-90-49l-72-36l-19.8-1.4l-56.7-21.3l-19.5,45.7
	l-19,49c0,0-15,35-10,33s106,45,106,45s61,20,64,25s46,26,52,32S1954.5,3502.5,1954.5,3502.5z"/>
<path id="land108" class="st0" d="M1428.5,3289.5l-9-47l-16-53v-46l54,14c0,0,75.3,23.6,78.2,24.8s71.7,22.3,71.7,22.3
	s61.5,20.9,63.3,21.4s54.5,17.1,54.5,17.1s16.3-5.6,11.3,4.4s-42,74-38,78s-8.8,36.9-8.8,36.9s-28.2-4.9-45.2-12.9s-64-32-84-35
	s-37-11-45-13s-54-10-58-12S1428.5,3289.5,1428.5,3289.5z"/>
<path id="land109" class="st0" d="M2241.5,3801.5c5-11,33-68,33-68s32-62,34-64s11-30,11-30l7-38l-12-19l-37-25l-47-6l-28,22l-22,13
	l-70-12l-71-29l-46-14l-12-7l-43.7-30.4l-69.3-28.6l-30-22l-57.7-28.9l-73.6-32.5l-29.7-13.6l-12.9-11.9l-33.7-13.7l-27-12.7
	l-38.4-5.7l-35.7-18.2l-54-12.6l-38.7-4.8l-18.6,6.6l-15,74v52l-4,20l56,18l44,6c0,0,21,3,29,3s40,16,46,16s31,9,40,9s36,9,36,9
	l36,17l20,26c0,0,48,38,53,42s55,32,60,37s24,11,43,18s48,21,48,21s3,9,13,11s43,10,50,16s72,26,72,26s37,19,42,20s37,13,37,13
	l48,24l48,22L2241.5,3801.5z"/>
<path id="land110" class="st0" d="M2039.5,3397.5c0,0,58,25,63,25s88,22,88,22l61,21l-20,58l-20.1,43c0,0-31.1,19.1-39.5,18.6
	s-43.4-20.5-51.4-18.5s-46.2-7.1-56.6-11S2005,3535,2005,3535l-36.1-19.2c0,0-0.5-15.7,0-24.5s25.6-41.6,28-43.7
	c2.5-2.1,20.5-33.1,20.5-33.1L2039.5,3397.5z"/>
<path id="land111" class="st0" d="M2242.5,3812.5l18,42v50l-9,65c0,0-18,47-19,50s-27,48-30,51s-45,48-45,48l-38,34c0,0-45,3-55,0
	s-106-45-106-45s-81-33-88-35s-54-25-54-25l23-50c0,0,15-59,23-59s16-18,22-21s34-4,34-4l27-43c0,0,17-37,19-40s15-33,19-38
	s20-36,20-36l19-35l16-7.2l86,35.2c0,0,49,30,54,31S2242.5,3812.5,2242.5,3812.5z"/>
<polygon id="land112" class="st0" points="1878.5,3656.5 1772.5,3825.5 1874.5,3904.5 1918.5,3913.5 2022.5,3721.5 1973.5,3690.5 
	"/>
<path id="land113" class="st0" d="M1622.5,3730.5l93-136l14-21l143.5,73.1l-64.6,121.5c0,0-20,62.4-36,57.4s-94-47-94-47
	L1622.5,3730.5z"/>
<path id="land114" class="st0" d="M1659.5,3523.5c0,0-110,177-106,176s36,15,36,15l24,16l38.4-42.9l32.9-48.2l28-40.9l18.2-33.6
	c0,0-31.5-13.4-30.5-19.4s-31.7-34.4-31.7-34.4l-8.3,0.4L1659.5,3523.5z"/>
<path id="land115" class="st0" d="M1362.5,3648.5l97,37c0,0,82,9,87,14s76,31,76,31l34.7,29.7c0,0,43.3,17.3,44.3,24.3
	s50.2,31.9,50.2,31.9s48.1,22.5,49.4,31.3s45.4,30.8,45.4,30.8l27,20c0,0,17,5,11,15s-27.1,29.9-29.1,34.4s-21.9,35.6-21.9,42.6
	s-17,38-17,38s-27-4-33-5s-45-34-53-35s-52-31-72-30s-64-29-64-29l-51-20l-53-31c0,0-54-27-59-27s-44-13-44-13l-40-21l-7-33l9-74
	L1362.5,3648.5z"/>
<path id="land116" class="st0" d="M1476.5,4060.5c0,0,128,71,137,68s57-68,57-68l33-68l-61.3-37.3l-77.7-25.7l-25-9l-34,67
	L1476.5,4060.5z"/>
<path id="land117" class="st0" d="M1799.5,4238.5c-4,0-77-33-77-33l-63-44l-46-24l32.7-45.1c0,0,35.7-56.4,38-60.1
	s22.3-47.7,22.3-47.7s62,34,66,40s50,25.9,50,25.9l51,28.1c0,0-18,50-19,50s-38,66-38,66L1799.5,4238.5z"/>
<polygon id="land118" class="st0" points="2073.5,4332.5 2097.5,4221.5 2112.1,4153.8 1934.5,4105.5 1873.5,4078.5 1834.1,4163.3 
	1801.6,4233 1816.5,4265.5 1918.5,4314.5 1976.5,4365.5 2033.5,4354.5 "/>
<polygon id="land119" class="st0" points="1574.5,4346.5 1600.5,4292.5 1628.5,4238.5 1650.5,4190.5 1662.5,4171.5 1613.5,4128.5 
	1567.9,4109.2 1505.5,4084.5 1447.5,4065.5 1358.5,4043.5 1295.5,4024.5 1254.5,4028.5 1218.5,4128.5 1190.5,4212.5 1295.5,4246.5 
	1366.5,4256.5 1415.5,4283.5 1500.5,4318.5 1565.5,4352.5 "/>
<path id="land120" class="st0" d="M1970.5,4531.5c0-3,6-54,6-54s-2-44,0-51s-4-46,0-50s-23.3-31.5-23.3-31.5s-53.7-31.5-55.7-36.5
	s-53.8-29.9-53.8-29.9l-54.2-19.1l-29,69l-21,67l33,40c0,0,66,26,71,28s61,38,61,38L1970.5,4531.5z"/>
<path id="land121" class="st0" d="M1576.5,4352.5c0,0,37,13,41,13s37,16,45,16s46,21,46,21s26,9,26,6s13.8-41,14.4-43
	s16.3-48.3,16.3-48.3l15.1-35.9l9.2-21.9l4-21l-42-17l-33.3-19l-33.7-14l-22-17l-37.5,75.8l-35,67l-13.5,32.2V4352.5z"/>
<path id="land122" class="st0" d="M1988.5,4369.5c0,0,29.9-11.7,34-12.9s56-21.1,56-21.1l38,10l39,20c0,0-38,42-38,44s-16,33-23,51
	s-22,55-23,60s-9,56-11,61s-23,57-22,60s-9,42-9,42s-10,33-13,31s-38-13-52-16s-33-21-33-21s-1-42,8-51s23-49,23-49l8-39l6-13v-48
	v-51l-1.4-42.3l8.3-18.7L1988.5,4369.5z"/>
<path id="land123" class="st0" d="M1696.5,4628.5l17-55l17-48l9-73l33-17l56.5,22.3l52.5,21.7l23,22l40.7,18.5l15.3,5.5l9,17.7
	c0,0-19.1,63.9-20.1,66.6s-23,51.7-23,51.7s-2,16-5,18s-70,1-74,0s-76-10-84-14S1696.5,4628.5,1696.5,4628.5z"/>
<path id="land124" class="st0" d="M1684.5,4635.5c0,0-35-10-42-12s-47-15-52-19s-50-13-50-13l-35-18v-55l19-49l14-45l21-50l17-15
	l41,6l50.2,17.2l53.3,26.4l10.5,9.4l8,61c0,0-9.3,47-11.1,52s-22,65-22,65L1684.5,4635.5z"/>
<path id="land125" class="st0" d="M1319.5,4460.5l12-47l16-54l23-63l7.8-33.5l60.5,30.1l57,23.5l55.7,35.9v29l-16.4,54l-19.7,57.6
	c0,0-5.8,32.4-9.8,38.4s0,53,0,53s-19,18-23,12s-13-40-15-44s-24-39-24-39s-13-11-36-16s-56-16-56-16l-32-6L1319.5,4460.5
	L1319.5,4460.5z"/>
<path id="land126" class="st0" d="M1611.5,4839.5c-6,0-53-8-53-8l-53-12c0,0-33-7-33-11s0-59,0-59v-56l-10-48l12-34l8-14l30-13h24
	l51,13l41.5,21.7l37.5,16.3l-13,61l-16,78l-21,56L1611.5,4839.5z"/>
<path id="land127" class="st0" d="M1726.5,4888.5l37-20l17-25c0,0,6-43,6-47s7-41,7-41v-44c0,0,11-33,8-31s-55.6-24.5-55.6-24.5
	l-49.4-20.5l-34-6.3l-17.9,110.6l-22.1,74.7l19,30l51,26L1726.5,4888.5z"/>
<path id="land128" class="st0" d="M1931.5,4881.5c3-4,14-68,14-68v-64v-46l-32.5-22.8c0,0-57.1,1.2-61.3,0s-50.2-0.2-50.2-0.2
	s-8,49-8,54s-8.2,73.6-8.6,76.3c-0.4,2.7-0.4,39.7-0.4,39.7s40,13,44,12s48,8,57,13S1931.5,4881.5,1931.5,4881.5z"/>
<path id="land129" class="st0" d="M2021.5,5039.5c0,0,14-28,14-33s-2-54-2-54s-9-26-12-29s0-64,0-64s-2-46-1-50s7-51,7-51l8-37
	l-49.5-17.2l-36.5,0.2l-4,67.8l-7.4,81.6c0,0-6.6,71.6-6.6,77.6s-17,50-14,60s-4,34,0,39s32,4,39,9s31-1,41,5s21,0,21,0
	L2021.5,5039.5z"/>
<path id="land130" class="st0" d="M1728.5,4897.5c0,0-4,28-4,32s-7,58-7,58s11,6,28,13s45,5,62,12s34,6,40,10s42,6,48,7s16-15,16-15
	l5-41l7-40v-36c0,0-12.3-14-16.6-16S1865,4869,1865,4869l-44.5-7.8l-27-7.8c0,0-16.4-5.1-19.7,0c-3.3,5.1-27.3,28.1-27.3,28.1
	L1728.5,4897.5z"/>
<path id="land131" class="st0" d="M1692.5,5149.5l10-44v-48l10-36l10-23l54.9,8.1l49.5,11.2l57.5,10.5l39.1,8.1l68.2,5.9l19.8,11.1
	c0,0-15,36-15,49s-12,57-12,57l-21,45c0,0-12,15-18,12s-31-4-40-7s4-7-35-13s-104-26-104-26s-46-6-49-8s-25-8-25-8V5149.5z"/>
<polygon id="land132" class="st0" points="1802.5,5262.5 1842.5,5240.5 1884.5,5216.5 1905.5,5209.5 1717.5,5162.5 1733.5,5188.5 
	1780.5,5232.5 1784.5,5257.5 1794.5,5272.5 "/>
<path id="land133" class="st0" d="M1622.5,5173.5h-49h-22l-4-34l17-58c0,0,6-48,7-52s13-51,13-51l11-66l13-48l14-25
	c0,0,32.2,12,37.6,14.5s32.4,16.5,32.4,16.5l34,18v41l-14,53c0,0-2.7,48.6-3.8,52.8c-1.2,4.2-12.2,59.2-12.2,59.2s1,32.8,0,37.4
	s-11,30.6-11,30.6l-27,11h-30H1622.5z"/>
<path id="land134" class="st0" d="M2035.5,4952.5c0,0,13,5,29,6s34,0,34,0s18-27,22-33s25-62,25-62l25-59l11-46l-11-26
	c0,0-58,3-62,0s-40-5-46-5s-28.3,0-28.3,0l0.3,47l-14.3,41.7c0,0-0.7,35.3,0.3,43.3s-0.1,56.8-0.1,56.8L2035.5,4952.5z"/>
<path id="land135" class="st0" d="M1543.5,5179.5l-46-6l-52-11l-19-7v-40l9-68v-54l6-78l5-72l16-23l43-5l46,14.4l44.9,9.6l6.1,12
	l-7,61l-16.1,86c0,0-13.9,60-14.9,63s-13,64.4-13,64.4l-4,24.3L1543.5,5179.5z"/>
<path id="land136" class="st0" d="M1418.5,3848.3l-52.4,197.1l100.3,26.3l19-33.4c0,0,31.8-73.1,36.5-83
	c4.7-9.8,17.7-34.8,17.7-34.8l-39.8-36.6l-42.7-21.7L1418.5,3848.3z"/>
<path id="land137" class="st0" d="M1227.5,3766.5l-58,203c0,0,41,29,44,29s52,6,52,6s39,13,45,15s45,15,45,15s15-58,23-62
	s30.5-88.7,30.5-88.7v-35.5c0,0-73.5-35.8-78.5-36.8s-47-27-47-27L1227.5,3766.5z"/>
<path id="land138" class="st0" d="M1204.5,4419.5l-22-54v-87l15.5-63.6l82.5,23.6l67.8,15.4l23.2,14.6c0,0-15.4,68.4-17.7,73.7
	c-2.3,5.3-20.3,62.3-22.3,71.3s-10.8,42.2-10.8,42.2s-38.2-11.2-44.2-13.2s-72-18-72-18V4419.5z"/>
<path id="land139" class="st0" d="M1276.5,4603.5l37-137l80.2,27.6l49.8,31.4l30.2,46.4l-2.1,47.8l-9.1,60.8c0,0-50-20-53-23
	s-46-20-51-22s-51-22-51-22L1276.5,4603.5z"/>
<path id="land140" class="st0" d="M1257.5,4780.5l9-90l14.9-85.4l145.1,60.6l44.4,20.2c0,0,4,111.5,2.8,117.1s-19.2,18.6-24.2,18.6
	s-74-10-74-10l-71-19L1257.5,4780.5z"/>
<path id="land141" class="st0" d="M1328.5,5131.5l31-182l16-98v-36l51,6h23c0,0-5.3,53-5.6,60s-8.4,120-8.4,116s-9,58-9,58
	s0,72,0,76s33,33,0,31s-38-7-38-7L1328.5,5131.5z"/>
<path id="land142" class="st0" d="M1303.5,5147.5l25-12c0,0,31,20,37,20s39,0,39,0l45,7l20,22l-7,68l-13,91v39c0,0-82-11-84-12
	s-75-11-75-11l-16-9l16-71l3-63l-1-48L1303.5,5147.5z"/>
<polygon id="land143" class="st0" points="1614.5,5396.5 1627.5,5280.5 1636.5,5179.5 1575.5,5179.5 1497.5,5173.5 1473.5,5173.5 
	1449.5,5382.5 1537.5,5382.5 1609.5,5396.5 "/>
<polygon id="land144" class="st0" points="1771.5,5403.5 1622.5,5370.5 1627.5,5280.5 1635.6,5189.3 1666.5,5173.5 1706.5,5162.5 
	1784.5,5232.5 1794.5,5272.5 1794.5,5294.5 1784.5,5382.5 "/>
<path id="land145" class="st0" d="M1584.5,5596.5l80,8l62,8l22-8l13-85l19-116l-63-12l-67.5-14.9l-33.9,5.9c0,0-15.6,55-13.6,59
	s-11,107-11,107L1584.5,5596.5z"/>
<path id="land146" class="st0" d="M1802.5,5272.5l28.2-25.5l39.1-22.1l35.7-15.4l40,7c0,0-5,56-5,61s-17,141-17,141l-18,86l-13,72
	l-4,36l-49-8l-55-6l-28-16c0,0,7.9-77.9,7.9-80.9c0.1-3.1,16.1-98.1,16.1-98.1l9.9-78.7L1802.5,5272.5z"/>
<polygon id="land147" class="st0" points="1301.5,5130.5 1274.5,5094.5 1227.5,5072.5 1195.5,5062.5 1221.5,4997.5 1230.5,4922.5 
	1243.5,4861.5 1253.5,4803.5 1257.5,4786.5 1297.4,4790.7 1351.4,4805.1 1375.5,4815.5 1371.5,4839.5 1365.7,4928.5 1349.8,5006.5 
	1333.9,5099.7 1319.5,5135.5 1303.5,5135.5 "/>
<path id="land148" class="st0" d="M1190.5,5055.5l-53-8l-37-10l-13-8c0,0-28-24-35-23s-34,2-55,0s-47-8-47-8l-32,8l7-35l22-43l24-40
	l19-37l9-21l42-27l20-30l11-21l39,13l22,4l34,6l28,5l50,6l12,17l-23.1,100.5l-11.2,78.6l-18.3,56.1l-9.5,16.8H1190.5z"/>
<path id="land149" class="st0" d="M1100.5,4558.5c0,0,43,12,47,15s54,11,54,11l46,6l34,15l-16.4,98.8l-7.6,82.2
	c0,0-48.7-5.4-55.3-5.7c-6.7-0.3-62.9-10.3-62.9-10.3l-41.3-9.5l-25.5-8.5l10-72l-10-18l10-33l11-45L1100.5,4558.5z"/>
<path id="land150" class="st0" d="M1103.5,4430.5v119.2l-24.9,92.6l-6.1,110.2l393.9,69.1l3.4-140.9l5.8-102.7l-56.7-77.3
	l-71.7-22.5l-38.2-25.9c0,0-61.6-23.8-66.6-21.8s-47-11-47-11l-52,5l-34,6h-6V4430.5z"/>
<path id="land151" class="st0" d="M1157.5,3975.5l40,13.3l36,16.7l20,6c0,0-3.9,29.8-5.4,34.9c-1.6,5.1-21.9,60.8-21.9,60.8
	l-19.9,64.3l-23.8,59v72c0,0-12,63-6,63s14,38,14,38l-21,18.5c0,0-31.2,8.8-46.6,6.1c-15.4-2.6-32.4-8.6-32.4-8.6l-31-28l-8-32
	c0,0,22-69,28-78s19-60,19-60s9-32,11-39s3-38,3-38s7-33,10-40s9-45,12-51s10-29,10-29l8-36L1157.5,3975.5z"/>
<path id="land152" class="st0" d="M908.5,5013.5h-47l-39-7l-30-8l36-58l14-65l25-47l31-35c0,0,11-9,20-7s49,0,49,0h23l7,35
	c0,0-7.8,31.4-9.4,34.7s-25.6,61.3-29.6,63.3s-28,24-28,29s-12,34-12,34L908.5,5013.5z"/>
<path id="land153" class="st0" d="M748.5,5158.5l44,21c0,0,58-2,63,0s63,8,63,8l51-8l43,21c0,0,12,12,13,0s22-37,22-42s25-51,25-51
	s21-35,21-39s0-35.3,0-35.3l-41-19.7l-84-11.3l-69,0.3l-54,4l-53-8l-29,49l-15,55V5158.5z"/>
<path id="land154" class="st0" d="M1021.5,5209.5l15,16l36,15l39,11l22,15c0,0,3,12,6,6s22-39,22-39l8-28c0,0,18-54,18-57s5-40,8-46
	s6.9-37.8,6.9-37.8l-40.9-13.5c0,0-42,3.4-55-3.6s-13-29-13-18s-21,85-21,85s-20,43-25,48s-30,47-30,47h4V5209.5z"/>
<path id="land155" class="st0" d="M1093.5,5435.5l136,24l45-102l17.7-114.5v-63.5c0,0-1.7-36,0.3-39s-7-38-7-38l-47-24.9l-43-15.1
	l-19,111l-27.4,87.5l-28.6,82.5c0,0-17,53-17,60S1093.5,5435.5,1093.5,5435.5z"/>
<path id="land156" class="st0" d="M1226.5,5597.5c0,0,2.3,0.5,5.9,1.3c13.3,3.1,45.2,10.5,53.1,13.7c10,4,49,25,49,25s24-4,28,0
	c1.7,1.7,6.8,0.5,12.2-1.4c7.2-2.6,14.8-6.6,14.8-6.6s17-34,17-37s15-74,15-74l14-59l5.6-77l-166.6-25l-28.4,64.4l-19.6,86.6V5597.5
	z"/>
<path id="land157" class="st0" d="M1430.5,5643.5l75-5l62,5c0,0,17-27,17-31s2.6-33.7,2.6-33.7l7.4-81.3l8-56v-45l-96-14h-65
	l-20,136c0,0-13,91-19,94s-43,39-43,39L1430.5,5643.5z"/>
<polygon id="land158" class="st0" points="1070.5,5542.5 1093.5,5435.5 1237.6,5459.5 1226.5,5517 1226.5,5587.3 1070.5,5548.5 "/>
<path id="land159" class="st0" d="M2110.5,3417.5l37-64l56-101v-22l-40-27c0,0-62-20.4-67-22.7s-80-19.3-80-19.3l-63-18l-50-24
	l-24.2-14l-75,156l68.8,42.2l61.5,26.8c0,0,35,23,40,25s82,42,82,42L2110.5,3417.5z"/>
<path id="land160" class="st0" d="M2267.5,3457.5h37l80,21l29,6l57-122l22-80c0,0-142-63-146-64s-97.6-39.5-97.6-39.5l-45.4,60.4
	l-39.3,84l-53.7,89.1l80,32L2267.5,3457.5z"/>
<path id="land161" class="st0" d="M2424.5,3636.5l18-63l11-67l-6-22l-47.2-2.7l-63.5-15.8l-69.3-8.5l-40,54l-7,35.5
	c0,0,66.6,20.9,69.3,21.2s36.7,17.3,36.7,17.3v16c0,0,52,23,55,24s48,11,48,11H2424.5z"/>
<path id="land162" class="st0" d="M2371.5,3794.5l-58-20l-38-24l12-51l26.3-43l11.5-48.3l25.3,3.9l62.6,20.7c0,0,16.4,7.7,16.4,10.7
	s-24,71-24,71L2371.5,3794.5z"/>
<path id="land163" class="st0" d="M2396.5,3907.5c4-4,42-42,42-42l30-34l24-46l25-46l-45-31l-54-9l-19.8,31l-27.2,84l-19,48l5,27
	L2396.5,3907.5z"/>
<path id="land164" class="st0" d="M2467.5,3974.5c5-8,50-67,50-67l41-59l37-63l-36-26l-38-19l-29,49.3l-33.1,52l-33.9,36.7l-29,29
	l-5,13l23,28l26,19L2467.5,3974.5z"/>
<path id="land165" class="st0" d="M2536.5,4047.5l41-68l18-72c0,0,21-62,22-65s14-32,14-32l-30-25c0,0-14,20.4-17.5,23.7
	s-47.5,77.3-47.5,77.3l-44,60.6l-29,37.4v40l30,23H2536.5z"/>
<path id="land166" class="st0" d="M2625.5,3734.5c0-6,23-61,23-61l21-37v-28c0,0-34-17-38-17s-24,0-24,0s-20,46-24,49s-41,44-41,44
	l-18,30l-7,26l38.1,17.1l28.7,19.9l24.2-7.9L2625.5,3734.5z"/>
<path id="land167" class="st0" d="M2602.5,3777.5l18.2,24l37.8,17h53c0,0,16,15,16,7s11-47,12-48s14-25,16-37s10-48,12-56s8-36,8-36
	l-40-17l-42-5l-16-6l-33.5,64L2602.5,3777.5z"/>
<path id="land168" class="st0" d="M2516.5,4221.5l38-26l27-42l23-42l-27-19l-22-21l-25-17l-25.2-7h-23.8l-18-23l-13,23l-18,54
	l-11,52v28l25,22c0,0,29-4,31,0S2516.5,4221.5,2516.5,4221.5z"/>
<path id="land169" class="st0" d="M2309.5,4171.5l6-49v-44l18-22l45-9c0,0,25,12,34,12s26,12,26,12l-17,82c0,0-4,23-9,23s-47,0-47,0
	s-21-8-26-5S2309.5,4171.5,2309.5,4171.5z"/>
<polygon id="land170" class="st0" points="2138.7,4733.7 2181.5,4658.5 2222.5,4580.5 2229.5,4517.5 2246.5,4430.5 2256.5,4386.5 
	2206.5,4359.5 2155.5,4359.5 2096.8,4454.9 2060.5,4558.5 2038.5,4647.7 2016.5,4714.5 2071.3,4727.5 "/>
<path id="land171" class="st0" d="M2073.5,5284.5l38-122l31-147l13-39l-48-13l-55.6-4.6c0,0-35.4,100.2-40.4,103.4
	c-5,3.2-39.9,124.3-42,129.2c-2,4.9-12,24.9-12,24.9l73,56l39,12h4V5284.5z"/>
<path id="land172" class="st0" d="M2070.5,5292.5l14,10l31,13c0,0,21,12,21,9s34-32,34-32l24-46c0,0,25-67,26-67s16-67,16-67l9-60
	l27-78l20-76l17-83l13-57l-14-15l-33-16l-46-6h-40l-28,94l-25.5,73l-29.5,58l11,12h10h23l11,12c0,0-7.5,12.4-9.7,17.2
	c-2.3,4.8-15.1,67.4-17.2,73.6s-10.1,60.2-10.1,60.2l-13,35l-4.5,29.4l-11.5,36.6L2070.5,5292.5z"/>
<path id="land173" class="st0" d="M2083.5,5638.5c1-7,45-122,45-122l27-93l22-73c0,0-48.6-27.6-51.3-29.3s-77.1-43-77.1-43
	l-58.7-36.5l-44.9-18l-21.1,187.3l-24.4,123.6l0.4,67.9l86,18L2083.5,5638.5z"/>
<polygon id="land174" class="st0" points="2078.5,5776.5 1900.5,5741.5 1905.5,5603.5 2093.5,5638.5 "/>
<path id="land175" class="st0" d="M1720.5,5805.5l21-193l15-24l117,15l21,13l-18,202c0,0-65,9-69,5s-70-10-70-10L1720.5,5805.5z"/>
<path id="land176" class="st0" d="M1837.5,6017.5c2-3,23-108,23-108l8.5-90l-74.5,0.7l-62.4-9.2l-11.6-0.5l-12,117l-6,65l-20,67
	c0,0,71-10,74-11s57-19,57-19L1837.5,6017.5z"/>
<path id="land177" class="st0" d="M1570.5,5802.5l52,8h60h38l9.7-93.9l0.3-78.1v-22l-56.1-10.7l-51.9-5.5l-38-3.8l-13.8,41.8
	l13.8,27.2c0,0,1,28,0,33s-6,49-6,53S1570.5,5802.5,1570.5,5802.5z"/>
<path id="land178" class="st0" d="M1434.5,5841.5c0-4,7-60,7-60l8-64l12-45v-31.1l44-2.9h55l24,27l-4.3,68.6l-17.7,76.4
	c0,0-11,54-14,59s-21,20-25,20s-42-11-42-11l-40-16L1434.5,5841.5z"/>
<path id="land179" class="st0" d="M1434.5,6125.5c3-3,0-170,0-170l7-80l46.5,4.9c0,0,21.5,19.1,28.5,14.1s27-12,27-12l9.6-28.8
	l17.4-35.2v-16l32,8h43.9h36.1h26l11.5,5.3c0,0-14.5,71.7-11.5,77.7s-3.7,69-3.4,70.5c0.4,1.5-12.6,62-12.6,62l-18,33.5
	c0,0-53,16-72,21s-69,12-74,15s-59,23-59,23L1434.5,6125.5z"/>
<path id="land180" class="st0" d="M1429.5,5845.5c-5,0-144-14-137-21s56.7-186,56.7-186h112.3l-27,207H1429.5z"/>
<path id="land181" class="st0" d="M1154.5,5791.5l11-50l28-38l6-37l33-70l93,26l24,16c0,0-48.8,164-48.4,164s-14.6,22-14.6,22l-34-6
	l-59-16L1154.5,5791.5z"/>
<path id="land182" class="st0" d="M1024.5,5684.5l57,19l54,14l37.3,14.1l17.7-41.1l18.5-44.2l15.9-33.8l7.5-24c0,0-33-21-40-16
	s-55.5-7.5-55.5-7.5l-45.7-11.3l-29.8-0.2l-23,75L1024.5,5684.5z"/>
<path id="land183" class="st0" d="M1024.5,5694.5c0,0-26,135-31,142s-22,69-22,69l-6,58l67,6l57,10h25c0,0,15-54,14-57s11-53,11-62
	s15-50,15-50l3.3-34l9.6-44.9c0,0-61.6-22.5-67.3-23.3c-5.7-0.8-66.5-18.3-66.5-18.3L1024.5,5694.5z"/>
<path id="land184" class="st0" d="M1266.5,6043.5c-5,0-56,1-59,0s-46-10-46-10l-50-9v-37l17-52.5l14.3-89.5l12.9-47.9l42.2,6.1
	l59.5,15.7l34.8,9.9l-8.7,73.2c0,0-14,71-14,77S1266.5,6043.5,1266.5,6043.5z"/>
<path id="land185" class="st0" d="M1034.5,6230.5c4,0,36-35,36-35l10-46l8-34l6-56l9-40c0,0,1-31,0-31s-79-19.7-79-19.7l-49.1-4.8
	l-60.9-10.5l-42-19l-32-6l-7,94c0,0-3,68,0,72s-7,78-7,78s42,1,44,4s42,7,42,7l36,19l57,20l26,1L1034.5,6230.5z"/>
<path id="land186" class="st0" d="M886.5,5528.5l-27,89c0,0-12,67-12,73s0,73,0,73s-9,84-9,89s-12,68-12,68s58,7,60,14
	s46.8,22.4,52.4,23.2c5.6,0.8,31.6-0.2,31.6-0.2l8.1-77l13.9-61l22.6-77.5l12-68l16.3-61.5l7.1-46l-46-20l-56-18l-35-17
	L886.5,5528.5z"/>
<path id="land187" class="st0" d="M900.5,5505.5l25-90l19-51l28-69l26-51l38-21l67.4,25.9c0,0,23.6,11.1,29.6,17.1
	s-27.9,133-31.4,144.5c-3.6,11.5-26.1,106-26.1,106l-14.5,36.5h-22l-45.9-10.5l-28.4-9.1L900.5,5505.5z"/>
<polygon id="land188" class="st0" points="1756.5,6114.5 1796.5,6100.5 1836.5,6100.5 1868.5,6151.5 1922.5,6221.5 1969.5,6309.5 
	2015.5,6382.5 2038.5,6422.5 2012.5,6502.5 2004.5,6562.5 1981.5,6617.5 1965.5,6624.5 1710.5,6581.5 1710.5,6559.5 1719.5,6464.5 
	1720.5,6382.5 1730.5,6310.5 1730.5,6241.5 1741.5,6160.5 "/>
<polyline id="land189" class="st0" points="2106.5,6025.5 2133.5,5998.5 2188.5,5998.5 2225.5,5979.5 2243.5,6013.5 2257.5,6116.5 
	2265.5,6203.5 2231.5,6246.5 2248.5,6266.5 2243.5,6338.5 2237.5,6378.5 2200.5,6387.5 2106.5,6401.5 2047.5,6413.5 2009.5,6362.5 
	1958.5,6289.5 "/>
<polygon id="land190" class="st0" points="2093.5,6025.5 2024.5,6025.5 1917.5,6043.5 1853.5,6079.5 1844.5,6100.5 1910.7,6206.2 
	1958.8,6289.5 2006.5,6230.5 2044.5,6157.5 2084.5,6088.5 2106.5,6043.5 "/>
<path id="land191" class="st0" d="M2004.5,6624.5c0,0,25,6,34,7s48,12,48,12l35-19v-32l-15-50l-7-49l-13-59l-17-21l-31,18.4
	l-29.5,96.6l-4.5,66v18V6624.5z"/>
<path id="land192" class="st0" d="M2079.5,6773.5h27l26-9l10-17v-37l-10-41l-11-32h-83h-24l-10,75v30c0,0,0,37,0,31s25-3,34,1
	S2079.5,6773.5,2079.5,6773.5z"/>
<polygon id="land193" class="st0" points="2106.5,6899.5 2121.5,6880.5 2130.5,6831.5 2130.5,6793.5 2106.5,6776.5 2050.9,6776.5 
	2004.5,6776.5 1995.5,6776.5 1975.5,6857.5 1975.5,6879.5 2062.5,6899.5 "/>
<path id="land194" class="st0" d="M2086.5,6413.5l35-14.2l41,0.2l42,7v140l-7,91l-1.4,113h95.4l24.3,81.8l4.7,167.4
	c-12,5.7-17,146.1-29,151.8c-13.3,6.4-80.7-26.4-94-20c-14.7,7,6.8-61.6-7.9-54.6c-10.7,5.1-10.4-9.5-21.1-4.4
	c-15.7-5.3-31.3-10.7-47-16v-12v-40l9-23l12-26l3-20l6-13l-6-13l-15-10V6838v-44.5v-17v-12l12-28.6v-29.4v-19l-12-44l-7.6-38.5
	l-4.6-33.7l-11.8-42.8v-37l-15.8-37.9L2086.5,6413.5z"/>
<path id="land195" class="st0" d="M2204.5,6742.5l-7-65.5l3.5-52.5l1.7-54.8l1.8-56.7v-38.3l7-21.2h31l34,7l16,14l7,94l-11,119v55
	c0,0-15,8-23,8S2204.5,6742.5,2204.5,6742.5z"/>
<polygon id="land196" class="st0" points="2197.5,7131.5 2197.5,7093.5 2187.5,7072.5 2168.5,7072.5 2182.5,7032.5 2185.9,6989.2 
	2189.7,6951.1 2190.5,6909.8 2190.5,6865.4 2191.5,6830.1 2193.7,6791.8 2196.1,6750.5 2230.5,6750.5 2265.5,6750.5 2291.5,6750.5 
	2315.5,6825.5 2315.5,6920.5 2315.5,6989.5 2299.5,7093.5 2299.5,7131.5 2286.5,7151.5 2233.5,7136.5 "/>
<polygon id="land197" class="st0" points="2204.5,6445.6 2204.5,6413.5 2211.8,6384.7 2241.5,6378.5 2241.5,6338.5 2248.5,6283.3 
	2265.5,6261.5 2315.5,6261.5 2343.5,6261.5 2355.5,6280.5 2338.5,6326.5 2325.5,6379.5 2299.5,6427.5 2289.5,6453.5 2241.5,6453.5 
	"/>
<path id="land198" class="st0" d="M2355.5,6994.5h49l45-8l18,8l-9,101v46l-23,35c0,0-19,0-32,0s-78-9-78-9l-26-16v-45.6l8.2-65.9
	l7.8-62.7L2355.5,6994.5z"/>
<path id="land199" class="st0" d="M2291.5,6655.4l57,0.1h56h29l23,201v121c0,0-18.8,10.6-28.4,12.8c-9.6,2.2-54.1,4.2-54.1,4.2
	l-44.9-11.4l-13.6-5.6c0,0-3-78,0-78s0-75,0-75l-8.5-25.6l-15.5-48.4V6655.4z"/>
<path id="land200" class="st0" d="M2291.5,6464.5l24-51l26-66c0,0,8-52,14-52s28,0,28,0l12,28l17,46c0,0-9,94-9,95s9,87,9,87l8,92
	l-57.1,12h-71.9l8-113.4v-47.6L2291.5,6464.5z"/>
<path id="land201" class="st0" d="M2265.5,6252.5c4-14,0-32,0-32l-8-104l-15-127l73-25l58-29l94-21h31l27,50c0,0-7,30-12,34
	s-57,55-57,55l-37.4,58.6l21,89l16.4,71.4v49h-52l-31-41l-30-19h-44h-34V6252.5z"/>
<path id="land202" class="st0" d="M2640.5,6100.5l-53-75l-42-46l-43.8,30l-45.2,50l-36,59l13.8,58.1l47.2,19.9l63-30
	c0,0,52-50,59-48S2640.5,6100.5,2640.5,6100.5z"/>
<polygon id="land203" class="st0" points="2412.5,6332.5 2456.5,6332.5 2515.5,6373.5 2574.5,6433.5 2556.5,6560.5 2565.5,6687.5 
	2574.5,6813.5 2562.5,6848.5 2456.5,6856.5 2441,6721.4 2429.5,6637.5 2412.5,6503.5 2408.3,6413.5 "/>
<path id="land204" class="st0" d="M2456.5,6212.5c0,0,64-34.9,69-37c5-2,65.4-50,65.4-50l55.6-25l71,112l33,40v80l-62,67l-85,95
	c0,0-35-12-29-19s10-60,0-62s-49-43-49-43l-58-38l-13.5-71L2456.5,6212.5z"/>
<polygon id="land205" class="st0" points="2574.5,6847.5 2652.5,6856.5 2688.5,6813.5 2688.5,6735.5 2688.5,6666.5 2678.5,6614.5 
	2640.5,6571.5 2610.5,6528.5 2561,6528.5 2567.1,6666.2 2574.5,6750.5 2574.5,6813.5 "/>
<polygon id="land206" class="st0" points="2724.5,6683.5 2688.5,6631.5 2650.2,6582.5 2602.5,6517.5 2615.2,6481.4 2676,6413.5 
	2735.3,6348.9 2784.5,6304.5 2850.5,6321.5 2919.5,6375.5 2930.5,6436.5 2871.5,6552.5 2801.5,6643.5 2741.5,6692.5 "/>
<polygon id="land207" class="st0" points="2467.5,6958.5 2624.5,6994.5 2651.5,6899.5 2631.5,6866.5 2561.5,6848.5 2484.4,6856.5 
	2456.5,6873 "/>
<polygon id="land208" class="st0" points="2456.5,7151.5 2467.5,7162.5 2508.5,7162.5 2554.5,7162.5 2588.5,7121.5 2602.5,7072.5 
	2617.2,6992.8 2467.5,6958.5 2462.5,7115.5 2456.5,7162.5 "/>
<polygon id="land209" class="st0" points="2130.5,7390.5 2176.5,7409.5 2257.5,7343.5 2291.5,7292.5 2373.5,7188.5 2366.5,7176.5 
	2265.5,7145.6 2185.5,7133.5 2156.5,7279.5 2142.5,7355.5 "/>
<path id="land210" class="st0" d="M2737.5,1536.5l23-9l48,9v85l-5,123c0,0,4,68-1,74s-30,45-30,45s-30-19-30-28s-41-82-41-82
	s2-51,8-56s20-99,20-99L2737.5,1536.5z"/>
<path id="land211" class="st0" d="M2949.5,2116.5c0-5,2-39,0-47s6-54,10-54s37-14,37-14l68,24l32,29v91l12,47c0,0-40,0-44,0
	s-100-43-100-43L2949.5,2116.5z"/>
<path id="land212" class="st0" d="M2968.5,2201.5l16-43.1c0,0,54,36.1,57,34.1s41.9,0,44.9,0s38.1,35,38.1,35v75c0,0-13,63-16,66
	s-48,68-48,80s-25,117-25,117l-36,56c0,0-39-14-50-16s-69-28-71-31s-7-43-7-43l21-100c0,0,28-99,33-105s24-77,24-77L2968.5,2201.5z"
	/>
<path id="land213" class="st0" d="M2882.5,2727.5c9,0,44,0,44,0l31-57l26.2-54.5l-72.7-25.4c0,0-54.5-30-54.5-25s-15,97-15,97v51
	l41,19V2727.5z"/>
<path id="land214" class="st0" d="M2905.5,2852.5c14-19,16-60,16-60l5-44l-37-16l-57-16c0,0-39-13-42-11s-21,37-21,37l7,55
	c0,0,50,37,58,35S2905.5,2852.5,2905.5,2852.5z"/>
<polygon id="land215" class="st0" points="2342.5,2743 2427.3,2770.2 2464.5,2778.5 2443.9,2919.5 2331.1,2892 2287.5,2883.5 
	2313.5,2802.8 2326.5,2762.1 "/>
<path id="land216" class="st0" d="M2501.5,2923.5c0,0-65,3-58-4s12.3-81.3,12.3-81.3l16.7-40.7h41h49l45,17c0,0-5,58-5,61
	s-23,49-23,49l-24,16L2501.5,2923.5z"/>
<path id="land217" class="st0" d="M2492.5,3274.5l-236-96l15.4-43.1l15.6-43.9l21-39l109,16l25-16l11-56l1-77h47l47.7,21l35.3,6v34
	l-17,73c0,0-43,99-42,103s-17,40-17,40L2492.5,3274.5z"/>
<path id="land218" class="st0" d="M2853.5,3570.5v38l46,12l83,36l30-43l29-81l15-65v-23l-30-47l-24-40l-24-49h-34l-24,89
	c0,0-40,89-40,94S2853.5,3570.5,2853.5,3570.5z"/>
<path id="land219" class="st0" d="M2775.5,3803.5v-32c0,0,27-24,29-31s15-56,15-56l34-76l93.3,32.5l35.7,15.5l-28,106l-12,57
	c0,0-34,6-42,8s-67-12-67-12L2775.5,3803.5z"/>
<path id="land220" class="st0" d="M2723.5,4057.5c8-3,64-17,67-17s88-12,88-12s33-87,36-88s14-113,14-113l-70.7-6.6l-61.3-7.4
	c0,0-31,14-30,14s-17,133-17,133l-22,58L2723.5,4057.5z"/>
<path id="land221" class="st0" d="M2578.5,4260.5c1-4,17-76,17-76s33-51,36-53s62-53,67-53s53-21,57-21s64-20.3,70.5-21.7
	c6.5-1.3,45.5-0.3,45.5-0.3l-46,118l-22,23l-56,13l-46,122l-24,90l-46,72l-36,23l-12,46l-21,114c0,0-7,89-15,90s-61,0-61,0
	s-33,7-23,0s18-110,18-110l5-80c0,0,6-59,7-63s19-86,19-86s34-75,35-72S2578.5,4260.5,2578.5,4260.5z"/>
<path id="land222" class="st0" d="M2322.5,4749.5l12-77l20-68l38-58l29,6l64.3,14.4l-7.7,105.6c0,0-7.6,74.9-16.6,76.9s-33,23-33,23
	l-40-5l-50-3L2322.5,4749.5z"/>
<path id="land223" class="st0" d="M2553.5,4749.5l30,14l33,5l22,10l19-15l29-67l15-62c0,0,6-45,10-49s0-34,0-34l-45-26l-52-22
	c0,0-7,5-16,10s-22.9,71.7-22.9,71.7l-13.1,74.3L2553.5,4749.5z"/>
<path id="land224" class="st0" d="M2728.5,4562.5c9-3,43-37,43-37s27-47,28-51s31-74,31-74s7-40,0-35s-43-11-43-11l-46-19l-39,5
	l-36,94l-43,60l20,14l40.5,24.8l34.5,13.2L2728.5,4562.5z"/>
<path id="land225" class="st0" d="M2349.5,5478.5c4-2,33-47,33-47l11-57v-68l-79-13h-36l-14,112v40l58,23L2349.5,5478.5z"/>
<path id="land226" class="st0" d="M2593.5,3926.5l76,12l41,11c0,0,13-40,13-42s10-72,10-72l-3-12l-41.5-5l-52.5-5l-19,29l-19,65
	L2593.5,3926.5z"/>
<path id="land227" class="st0" d="M2610.5,4105.5c0,0,22-33,27-33s36-36,41-40s20-54,21-55s6.5-28,6.5-28l-52.4-13.5l-58.1-6.5
	l-18,50l-30,51.8l-17,23.2l35.5,27l34.5,24H2610.5z"/>
<path id="land228" class="st0" d="M2631.5,4079.5l45.1,14.6c0,0-39.3,32.3-40.2,33.3s-23.6,30.5-23.6,30.5l-18.5,31.7l-13.9,62.2
	c0,0-16,45.9-17.5,48.3s-30.2,63.6-30.2,63.6l-20.3,43.8l-20,74l-14,71l-23.8,7.5l-30.2-13.5l-30-17c0,0,35-89,36-97s33-94,33-94
	s35-76,35-79s15-27,15-27l26.5-27.5l19.5-22.5l7.2-6c0,0,15.6-18.1,15.2-20.6c-0.4-2.4,14.7-28.4,14.6-29.9
	c-0.1-1.5,10.9-22.5,13.9-23.5S2631.5,4079.5,2631.5,4079.5z"/>
<path id="land229" class="st0" d="M2382.5,4546.5c-5-2-61-33-57-41s57-210,61-212s48-92,48-92l62.4,12.1l19.6,7.9l-62.9,144
	l-62.1,168L2382.5,4546.5z"/>
<path id="land230" class="st0" d="M2337.9,4055.6l40.6-15.1l56,23c0,0,14-22,20-28s6-48,7-55s-23-13-23-13l-31-27.5
	c0,0-12-24.5-16-19.5s-39,97-39,97L2337.9,4055.6z"/>
<path id="land231" class="st0" d="M2322.5,4057.5c-5,2-40-3-40-3l-30,24l-37-12l17-49c0,0,26-69,28-77s0-97,0-97l-19-42l34-57l82,50
	l10,7l-15,77l15,20l24,9l-29.1,84.2l-24.9,65.8H2322.5z"/>
<path id="land232" class="st0" d="M2128.8,4351.8c8.7-9.3,51.7-104.3,51.7-104.3l50-61l30-81l-4-30.2l-51.3-8.7l-89.3,87.2
	l-30.4,123.1l-7,55.6L2128.8,4351.8z"/>
<path id="land233" class="st0" d="M2226.5,4365.5c6-1,29-50,34-52s27-66,27-66l-5-26l-52-35L2178,4253l-37,77.7l-4.5,17.8l15,11
	c0,0,37-3,40-3S2226.5,4365.5,2226.5,4365.5z"/>
<path id="land234" class="st0" d="M2245.5,5047.5l159,26c0,0,18-19,18-26s11-119,15-127s12-122,12-122s-32.2-28-35.6-26
	c-3.4,2-75.4-8-75.4-8l-23,40c0,0-19,91-19,95s-18.4,66.8-21.2,70.9s-13,42.9-13,42.9L2245.5,5047.5z"/>
<path id="land235" class="st0" d="M2449.5,4922.5c13,4,62-9,62-9l59-8c0,0,36,22,40,18s19-57,23-63s14-62,14-62s-10-17-14-18
	s-62-16-62-16s-47-16-49-15s-57.3,0.1-57.3,0.1l-10.7,30.9c0,0-9,99-9,108s-8,31-8,31L2449.5,4922.5z"/>
<path id="land236" class="st0" d="M2618.5,4932.5c5,0,34,12,34,12l14-21c0,0,32-31,32-35s32-60,32-60l26-50c0,0-18-46-18-51
	s-25-56-25-56l-26,20.9l-30,72.1c0,0-20.9,68.4-18.9,78.7s-20.1,67.4-20.1,67.4s-12,7.8-8,12.8S2618.5,4932.5,2618.5,4932.5z"/>
<path id="land237" class="st0" d="M2766.5,5016.5c0,0-38-22-42-22s-52-23-52-23s-10-30-10-31s21.8-34.1,23.4-36.5
	c1.6-2.5,28.6-36.5,28.6-36.5s19.9-47,20.9-48.5c1.1-1.5,27.1-40.5,31.1-38.5s27,14,30,15s39,28,39,28s14,33,13,36s-24,55-29,60
	s-25,31-25,33s-15,38-15,38L2766.5,5016.5z"/>
<path id="land238" class="st0" d="M2253.5,5282.5l40-223l122,18l-18,225c0,0-56-11-63-9s-58-9-58-9L2253.5,5282.5z"/>
<path id="land239" class="st0" d="M2393.5,5358c12,1.5,31,12.5,32,8.5s31-63,33-64s42-99,43-102s56-109,58-115s43-133,43-133V4924
	l-27.8-16l-66.2,11.5l-49.4,4.5l-21.6-4.5l-22,154l-7.7,100l-10.3,129L2393.5,5358z"/>
<path id="land240" class="st0" d="M2510.5,5452.5c0-3-37-21-44-25s-51-41-51-41s24-36,26-39s53-112,53-112l38.9-97.8l42.6-103
	c0,0,17.4-55.2,18.5-57.2s8.1-47.7,8.1-47.7l45,10.7l20.8,18.4l4.2,12.6l76.3,35l26.7,17l-64,150l-88,129l-62,84l-36,49
	L2510.5,5452.5z"/>
<polygon id="land241" class="st0" points="2236.5,5519.5 2177.5,5506.5 2133.6,5498.9 2158.5,5403.5 2185.5,5360.5 2260.5,5376.5 
	2260.5,5459.5 "/>
<path id="land242" class="st0" d="M2155.5,5782.5c-4,0-72-6-72-6v-65l5.8-90.5l38-101.5l11.2-19.7l71.2,13.8l32.8,5.9l-30,88l-26,52
	l-19,44l-5,45L2155.5,5782.5z"/>
<path id="land243" class="st0" d="M2393.5,5764.5c2-4,40-58,40-58s12-39,7-44s-34-58-37-70s-19-82-19-82l-35-32h-43l-29,82l-24,43
	c0,0-30,2-31,5s-35,80-38,82s-19.6,36.3-20.8,47.2c-1.2,10.8-4.2,53.8-4.2,53.8s77-2,89,0s114,3,112,0s33-24,33-24V5764.5z"/>
<path id="land244" class="st0" d="M2059.5,5968.5c0,0,5-65,8-71s19.3-122,21.6-121s161.4,23,161.4,23s7,121,0,121
	S2059.5,5968.5,2059.5,5968.5z"/>
<path id="land245" class="st0" d="M2497.5,5588.5l56-30c0,0,45-38,49-39s21-72,31-67s80-76,80-76s70-77,83-83s75-76,75-76l-73-48
	l-85-32l-118,230l-70,64l-64,8l-32,90c0,0,21,67,32,67S2497.5,5588.5,2497.5,5588.5z"/>
<path id="land246" class="st0" d="M2694.5,5733.5l61-109l-153-105l-117,84c0,0,72,55,82,62s95,41,95,41L2694.5,5733.5z"/>
<path id="land247" class="st0" d="M2756.5,5612.5l47-60c0,0,19-71,23-74s-35-39-35-39l-60-36l-18-7l-89,65.2l-14.8,62.7l80,54.9
	L2756.5,5612.5z"/>
<path id="land248" class="st0" d="M2835.5,5469.5c6-3,79-121,79-121l39-125v-78l-75,71l-165,169c0,0,61,37,73,46
	S2835.5,5469.5,2835.5,5469.5z"/>
<path id="land249" class="st0" d="M2920.5,4780.5l65,95l26,43c0,0-15,141-23,148s-35,71-35,71l-82,66l-45-31l-91.8-27l40.8-86l20-81
	c0,0,30.2-80.1,38.1-80s37.9-55,37.9-55L2920.5,4780.5z"/>
<path id="land250" class="st0" d="M2887.5,5411.5l56,29c0,0,56-58,68-64s53-69,53-69l27-145l36-123l16-81l-43-29l-89-10l-19,154
	l-39,117.7l-31.7,133.8L2887.5,5411.5z"/>
<path id="land251" class="st0" d="M2755.5,4558.5c0,0,80,126,93,122s59,96,59,98s-36,65-36,65l-45.5-27.1l-62.5-43.9l-35-101l-15-12
	c0,0-16-50.3-7.5-53.7C2714.5,4602.5,2755.5,4558.5,2755.5,4558.5z"/>
<path id="land252" class="st0" d="M2848.5,4365.5h59l46,30l-17,79l-36,88l-29,118l-38-11.5l-41.2-54.9l-25.8-51.5c0,0,38-65,39-69
	s6-68,20.5-71.5C2840.5,4418.5,2848.5,4365.5,2848.5,4365.5z"/>
<polygon id="land253" class="st0" points="3112.5,4875.5 3104.5,4843.5 3049.5,4788.5 2980.5,4733.5 2928.5,4671.5 2896.5,4629.5 
	2871.5,4693.5 2899.5,4780.5 2963.4,4843.2 3026.5,4907.5 3084.5,4919.5 3104.5,4898.5 "/>
<path id="land254" class="st0" d="M2962.5,4448.5l73,62l77,36c0,0-87.2,223-93.1,218s-56.9-60-56.9-60l-57.2-63.5
	c0,0,0.2-51.5,0.2-52.5s18-74,23-75s34-72,34-72V4448.5z"/>
<path id="land255" class="st0" d="M3172.5,4851.5l36-62l66-68l28-81l-84-59l-97-35c0,0-53.7,87.2-47.3,96.1
	c6.3,8.9-39.7,115.9-39.7,115.9s42,43,41,49s55,44,55,44H3172.5z"/>
<path id="land256" class="st0" d="M2914.5,3935.5c0,5,120,28,120,28s70,14,67,21s-18,134-24,127s-112-45-112-45s-102-22.9-94-24.4
	C2879.5,4040.5,2914.5,3935.5,2914.5,3935.5z"/>
<path id="land257" class="st0" d="M3020.5,4232.5c-8,0-167-46-167-46l-28-33l46-118l104.9,34.9l52.1,9.1l49,32L3020.5,4232.5z"/>
<path id="land258" class="st0" d="M2871.5,4359.5c0,0,2.8-3.2,7.2-8c7.6-8.3,20-21.6,30.9-31.8c8-7.5,15.1-13.3,18.9-14.2
	c7.6-1.9,40.4-19.8,63.5-32.7c13.4-7.5,23.5-13.3,23.5-13.3l-7-21l-117-37l-66-15h-65.1l-53.9,89l-3,60c0,0,54-2,63,0s13,24,59,24
	S2871.5,4359.5,2871.5,4359.5z"/>
<path id="land259" class="st0" d="M3056.5,4282.5l31,22c0,0-26,49-31,55s-64,50-64,50l-27,12l-45-47.5l-42-22.5l76.5-58.5l60.5-33.5
	L3056.5,4282.5z"/>
<path id="land260" class="st0" d="M3123.5,4512.5c10-2,66-91,66-91v-81l-54-21l-34-9l-51.7,55l-67.3,56l9.5,52.1l74.5,38.9H3123.5z"
	/>
<path id="land261" class="st0" d="M3189.5,4319.5c1,3,19-60,19-60l-72-21l-80-52l-28,46l-13,27l62,45l58,15l41.1,16L3189.5,4319.5z"
	/>
<path id="land262" class="st0" d="M3375.5,4584.5l92-192l-145-57c0,0-113.6-76-118.8-59.5s-14.2,64.5-14.2,64.5s-10,62-10,71
	s-18,52.9-18,52.9s52,37.1,69,48.1s84,47,84,47L3375.5,4584.5z"/>
<path id="land263" class="st0" d="M781.5,5949.5l45-14l7.9-57.4l9.9-83.8l3.3-98.8c0,0,16-100,16-108s-25-42-25-42l-79-10l-42,116
	c0,0-55,64-59,69s-28,64-28,64v144l43,15l85,6L781.5,5949.5L781.5,5949.5z"/>
<path id="land264" class="st0" d="M748.5,5162.5l70,23h62l69,12l9,75l-58,104l-37,98v67h-71l-29-25c0,0,7-113,6-120s-4-69-4-69
	s-42-38-42-43s6-79,6-79L748.5,5162.5z"/>
<path id="land265" class="st0" d="M729.5,5505.5l-125-11l-38-17l-9-89l38-97h55l79,1.2l37.5,64.8c0,0-4.5,99-4.5,102s-8,57-8,57
	L729.5,5505.5z"/>
<path id="land266" class="st0" d="M576.5,5228.5c0-3,35-113,35-113s45-62,45-68s14-69,28-70s83-78,83-78l74-48l7.9,11l-17.1,60.3
	l-48.8,74.7c0,0-41,62-35,72s0,93,0,93l-25,92c0,0-6,27-11,30s-56-2-56-2s-42,1-45,3S576.5,5228.5,576.5,5228.5z"/>
<path id="land267" class="st0" d="M501.5,4851.5l132-42c0,0,81-39,84-38s93,62,93,68s-57,57-55,64s-59,57-59,57l-55,53l-48-24
	l-58-49L501.5,4851.5z"/>
<path id="land268" class="st0" d="M729.5,4646.5l111,7l73,27l-6,86c0,0-33.5,54.6-36.7,58.3c-3.3,3.7-42.3,21.7-42.3,21.7l-57-31
	l-39.6-34.7l-28.4-39.3L729.5,4646.5z"/>
<path id="land269" class="st0" d="M751.5,4409.5c6,1,115-4,115,0s-11,185-11,185s-29,55-39,52s-70-11-70-11s-6-60-6-68s-10-86,0-95
	S751.5,4409.5,751.5,4409.5z"/>
<path id="land270" class="st0" d="M1391.5,3444.5c0,0-27,49-25,62s0,124,0,124l-0.1,18l98,37.5l75.1,6.5l28.8-20
	c0,0,36.3-59.1,37.2-61.5s48-77.9,48-77.9l-0.1-30.6l-95-18l-59-19L1391.5,3444.5z"/>
<path id="land271" class="st0" d="M1207.5,3217.5c0,0,129,13,132,13s76.4,0,76.4,0l-16.4-59c0,0,7-88,0-86s-127-6-133-6s-67-12-67-8
	s0,109,0,109L1207.5,3217.5z"/>
<polygon id="land272" class="st0" points="1216.5,3064.5 1207.5,3005.5 1262.5,2949.5 1384.5,2957.5 1403.5,2966.5 1403.5,3064.5 
	1391.1,3085.5 1305.5,3081.7 1226.9,3073.4 "/>
<path id="land273" class="st0" d="M1478.5,2301.5l108,12l-25,55.6l-30,103.4l106,36.3l46,17.7l-69.1,155l-89.9-64c0,0-29-51-54-72
	s-47-28-45-32S1478.5,2301.5,1478.5,2301.5z"/>
<path id="land274" class="st0" d="M1767.5,2058.5l-65-28c0,0-3-70,0-77s28-107,28-107l3.8-33l57.2,34l34,94.4c0,0,22,47.6,21,53.6
	s-34,59-34,59L1767.5,2058.5z"/>
<path id="land275" class="st0" d="M2668.5,589.5l104.8,5l-7,57l-7.8,24l-41,17l-12,49l-15,20l-17,18l-14,17c0,0-13,41-16,41
	c-1.7,0,15.1,24.7,5,30c-7.6,4-7,32-7,32l-12,32l-34.3-2.6l-30.7,28.6l-7,75v40v15c0,0,0,0,0,10c0,5.1,0,24.8,0,41c0,15.7-4,30-4,30
	v35l-218.7,10.2l-0.3-83.2l-6-76l9-28l19-6l35-8l10-12c0,0,2.2-27.6,2.1-32.3c-0.1-4.7,3.6-33.5,3.6-33.5l19.1-53.9l8.5-31.5
	l27.7-23.8l28.5-0.5l12.5-7.5l15.1-15.9l10.2-16.3l13.7-30.7l6-20v-33h26l18-13c0,0,14-3,18-3s19-20,19-20l13.7-4.9l17.3-11.1
	l6.1-12l14.9-17L2668.5,589.5z"/>
</svg>
